<svg width="22" height="22" viewBox="0 0 22 22" fill="none" xmlns="http://www.w3.org/2000/svg">
<path d="M16.7566 9.75328C16.7566 13.6211 13.6211 16.7566 9.75328 16.7566C5.88548 16.7566 2.75 13.6211 2.75 9.75328C2.75 5.88548 5.88548 2.75 9.75328 2.75C13.6211 2.75 16.7566 5.88548 16.7566 9.75328ZM4.91765 9.75328C4.91765 12.4239 7.08264 14.5889 9.75328 14.5889C12.4239 14.5889 14.5889 12.4239 14.5889 9.75328C14.5889 7.08264 12.4239 4.91765 9.75328 4.91765C7.08264 4.91765 4.91765 7.08264 4.91765 9.75328Z" fill="#A0A09F"/>
<path d="M15.3886 14.1972C15.0637 13.8746 14.543 13.8746 14.2182 14.1972C14.0498 14.3669 13.9551 14.5973 13.9551 14.8377C13.9551 15.0437 14.0246 15.2424 14.1506 15.4018L14.2182 15.4781L17.4005 18.9207C17.8348 19.3597 18.5391 19.3597 18.9734 18.9207C19.4078 18.4817 19.4078 17.7699 18.9734 17.3309H18.9361L15.3886 14.1972Z" fill="#A0A09F"/>
</svg>
